# xmcd CD database file generated by Grip 2.91
# 
# Track frame offsets:
#       150
#       39775
#       54712
#       75175
#       126627
# 
# Disc length: 2126 seconds
# 
# Revision: 3
# Processed by: cddbd v1.4b41PL1 Copyright (c) Steve Scherf et al.
# Submitted via: Grip 2.91
# 
DISCID=36084c05
DTITLE=Dizzy Gillespie - Blues People
DYEAR=1900
DGENRE=
TTITLE0=Con-Alma
TTITLE1=Dartmouth Duet
TTITLE2=Woodyn' You
TTITLE3=Blues People
TTITLE4=Bella Bella
EXTD=Recorded Live In Concert At Dartmouth College, Hanover, New Hampshire\
EXTD=n\nDizzy Gillespie    trumpet\nDwike Mitchell   piano\nWillie Ruffbass
EXTD=and french horn
EXTT0=
EXTT1=
EXTT2=
EXTT3=
EXTT4=
PLAYORDER=
